<svg xmlns="http://www.w3.org/2000/svg" xmlns:xlink="http://www.w3.org/1999/xlink" version="1.1" width="256" height="256" style="enable-background:new 0 0 256 256;" xml:space="preserve"><rect id="backgroundrect" width="100%" height="100%" x="0" y="0" fill="none" stroke="none"/>

<g class="currentLayer"><title>Layer 1</title><g id="svg_1" class="" fill-opacity="1" fill="#184b4e">
	<path d="M86.805,131.253c0,1.383,0.844,2.566,2.039,3.07v0.004l-0.871,4.902c-0.129,0.719,0.309,1.363,0.988,1.363h2.344   c0.68,0,1.117-0.645,0.992-1.363l-0.871-4.902c0,0-0.004,0-0.004-0.004c1.203-0.5,2.043-1.688,2.043-3.07   c0-1.838-1.488-3.328-3.332-3.328C88.297,127.925,86.805,129.415,86.805,131.253z" id="svg_2" fill="#184b4e"/>
	<path d="M53.336,13.212v229.576h149.328V13.212H53.336z M187.426,227.042H68.574V28.956h118.852V227.042z" id="svg_3" fill="#184b4e"/>
	<path d="M183.363,33.021H72.641v189.959h110.723V33.021z M98.992,144.378c0,0.578-0.469,1.051-1.047,1.051H82.32   c-0.578,0-1.047-0.473-1.047-1.051v-38.695c0-0.578,0.469-1.047,1.047-1.047h15.625c0.578,0,1.047,0.469,1.047,1.047v4.357h-6.605   c-2.152,0-3.895,1.744-3.895,3.895v1.146c0,2.152,1.742,3.896,3.895,3.896h6.605V144.378z M121.906,114.651   c0,1.736-1.406,3.145-3.148,3.145H92.859c-1.734,0-3.145-1.408-3.145-3.145v-0.316c0-1.738,1.41-3.146,3.145-3.146h25.898   c1.742,0,3.148,1.408,3.148,3.146V114.651z" id="svg_4" fill="#184b4e"/>
</g></g></svg>